<svg width="115" height="116" viewBox="0 0 115 116" fill="none" xmlns="http://www.w3.org/2000/svg">
<path d="M57.5 0.00195312C25.7436 0.00195312 0 25.7456 0 57.502C0 89.2583 25.7436 115.002 57.5 115.002C89.2564 115.002 115 89.2583 115 57.502C114.966 25.7598 89.2424 0.0358852 57.5 0.00195312ZM81.7155 59.334C81.3175 60.1325 80.6703 60.7799 79.8716 61.1779V61.1984L47.0145 77.6271C44.9853 78.6409 42.5186 77.8181 41.5045 75.7889C41.2162 75.2121 41.0677 74.5753 41.0713 73.9306V41.0735C41.0704 38.8051 42.9082 36.9656 45.1766 36.9644C45.8146 36.9641 46.4439 37.1124 47.0145 37.3975L79.8716 53.8262C81.9018 54.8379 82.7274 57.3039 81.7155 59.334Z" fill="white"/>
</svg>
