<svg id="Bold" enable-background="new 0 0 32 32" height="512" viewBox="0 0 32 32" width="512" xmlns="http://www.w3.org/2000/svg"><path d="m26 32h-20c-3.314 0-6-2.686-6-6v-20c0-3.314 2.686-6 6-6h20c3.314 0 6 2.686 6 6v20c0 3.314-2.686 6-6 6z" fill="#ffe6e2"/><path d="m17.031 14h-1.831v2h1.831c.535 0 .969-.448.969-1s-.434-1-.969-1z" fill="#fd907e"/><path d="m16 8c-4.418 0-8 3.582-8 8s3.582 8 8 8 8-3.582 8-8-3.582-8-8-8zm1.016 9.2h-1.816v2h-1.2v-6.4h3.016c1.206 0 2.184.978 2.184 2.2 0 1.19-.978 2.168-2.184 2.2z" fill="#fc573b"/></svg>